<svg width="48" height="49" viewBox="0 0 48 49" fill="none" xmlns="http://www.w3.org/2000/svg">
<g filter="url(#filter0_d_1_6172)">
<path d="M32.8285 0.949219H14.7C8.79993 0.949219 4 5.74915 4 11.6492V29.778C4 35.6778 8.79993 40.4777 14.7 40.4777H32.8288C38.7286 40.4777 43.5285 35.6778 43.5285 29.778V11.6492C43.5285 5.74915 38.7286 0.949219 32.8285 0.949219V0.949219ZM41.2112 29.778C41.2112 34.4 37.4508 38.1604 32.8285 38.1604H14.7C10.0777 38.1604 6.31733 34.4 6.31733 29.778V11.6492C6.31733 7.02693 10.0777 3.26655 14.7 3.26655H32.8288C37.4508 3.26655 41.2112 7.02693 41.2112 11.6492V29.778Z" fill="#001E64"/>
<path d="M23.7623 9.90527C17.8025 9.90527 12.954 14.7538 12.954 20.7136C12.954 26.6734 17.8025 31.5218 23.7623 31.5218C29.7221 31.5218 34.5706 26.6734 34.5706 20.7136C34.5706 14.7538 29.7221 9.90527 23.7623 9.90527ZM23.7623 29.2045C19.0806 29.2045 15.2714 25.3956 15.2714 20.7136C15.2714 16.0318 19.0806 12.2226 23.7623 12.2226C28.4443 12.2226 32.2533 16.0318 32.2533 20.7136C32.2533 25.3956 28.4443 29.2045 23.7623 29.2045Z" fill="#001E64"/>
<path d="M34.8304 6.06665C33.0692 6.06665 31.6367 7.49945 31.6367 9.26037C31.6367 11.0216 33.0692 12.4544 34.8304 12.4544C36.5917 12.4544 38.0245 11.0216 38.0245 9.26037C38.0245 7.49915 36.5917 6.06665 34.8304 6.06665ZM34.8304 10.1368C34.3473 10.1368 33.954 9.7435 33.954 9.26037C33.954 8.77694 34.3473 8.38398 34.8304 8.38398C35.3139 8.38398 35.7071 8.77694 35.7071 9.26037C35.7071 9.7435 35.3139 10.1368 34.8304 10.1368Z" fill="#001E64"/>
</g>
<defs>
<filter id="filter0_d_1_6172" x="0" y="0.949219" width="47.5285" height="47.5286" filterUnits="userSpaceOnUse" color-interpolation-filters="sRGB">
<feFlood flood-opacity="0" result="BackgroundImageFix"/>
<feColorMatrix in="SourceAlpha" type="matrix" values="0 0 0 0 0 0 0 0 0 0 0 0 0 0 0 0 0 0 127 0" result="hardAlpha"/>
<feOffset dy="4"/>
<feGaussianBlur stdDeviation="2"/>
<feComposite in2="hardAlpha" operator="out"/>
<feColorMatrix type="matrix" values="0 0 0 0 0 0 0 0 0 0 0 0 0 0 0 0 0 0 0.25 0"/>
<feBlend mode="normal" in2="BackgroundImageFix" result="effect1_dropShadow_1_6172"/>
<feBlend mode="normal" in="SourceGraphic" in2="effect1_dropShadow_1_6172" result="shape"/>
</filter>
</defs>
</svg>
